<?xml version="1.0" encoding="UTF-8" standalone="no"?>
<!-- Created with Inkscape (http://www.inkscape.org/) -->

<svg
   width="122.71092mm"
   height="93.320076mm"
   viewBox="0 0 122.71092 93.320076"
   version="1.1"
   id="svg1"
   inkscape:version="1.3.2 (091e20ef0f, 2023-11-25)"
   sodipodi:docname="dharma_logo.svg"
   xmlns:inkscape="http://www.inkscape.org/namespaces/inkscape"
   xmlns:sodipodi="http://sodipodi.sourceforge.net/DTD/sodipodi-0.dtd"
   xmlns="http://www.w3.org/2000/svg"
   xmlns:svg="http://www.w3.org/2000/svg">
  <sodipodi:namedview
     id="namedview1"
     pagecolor="#ffffff"
     bordercolor="#000000"
     borderopacity="0.25"
     inkscape:showpageshadow="2"
     inkscape:pageopacity="0.0"
     inkscape:pagecheckerboard="0"
     inkscape:deskcolor="#d1d1d1"
     inkscape:document-units="mm"
     inkscape:zoom="0.47749719"
     inkscape:cx="231.41497"
     inkscape:cy="175.91726"
     inkscape:window-width="1280"
     inkscape:window-height="775"
     inkscape:window-x="0"
     inkscape:window-y="0"
     inkscape:window-maximized="1"
     inkscape:current-layer="layer1" />
  <defs
     id="defs1">
    <clipPath
       clipPathUnits="userSpaceOnUse"
       id="clipPath3">
      <path
         d="M 0,364 H 459.334 V 0 H 0 Z"
         transform="translate(-373.08691,-136.6592)"
         id="path3" />
    </clipPath>
    <clipPath
       clipPathUnits="userSpaceOnUse"
       id="clipPath5">
      <path
         d="M 0,364 H 459.334 V 0 H 0 Z"
         transform="translate(-120.18801,-165.2236)"
         id="path5" />
    </clipPath>
    <clipPath
       clipPathUnits="userSpaceOnUse"
       id="clipPath7">
      <path
         d="M 0,364 H 459.334 V 0 H 0 Z"
         transform="translate(-105.7798,-228.73441)"
         id="path7" />
    </clipPath>
    <clipPath
       clipPathUnits="userSpaceOnUse"
       id="clipPath9">
      <path
         d="M 0,364 H 459.334 V 0 H 0 Z"
         transform="translate(-85.319305,-185.8672)"
         id="path9" />
    </clipPath>
    <clipPath
       clipPathUnits="userSpaceOnUse"
       id="clipPath11">
      <path
         d="M 0,364 H 459.334 V 0 H 0 Z"
         transform="translate(-156.874,-237.37501)"
         id="path11" />
    </clipPath>
    <clipPath
       clipPathUnits="userSpaceOnUse"
       id="clipPath14">
      <path
         d="M 0,364 H 459.334 V 0 H 0 Z"
         transform="translate(-373.08691,-136.6592)"
         id="path14" />
    </clipPath>
    <clipPath
       clipPathUnits="userSpaceOnUse"
       id="clipPath16">
      <path
         d="M 0,364 H 459.334 V 0 H 0 Z"
         transform="translate(-137.14551,-151.19341)"
         id="path16" />
    </clipPath>
    <clipPath
       clipPathUnits="userSpaceOnUse"
       id="clipPath18">
      <path
         d="M 0,364 H 459.334 V 0 H 0 Z"
         transform="translate(-120.0249,-165.3535)"
         id="path18" />
    </clipPath>
    <clipPath
       clipPathUnits="userSpaceOnUse"
       id="clipPath20">
      <path
         d="M 0,364 H 459.334 V 0 H 0 Z"
         transform="translate(-125.6548,-165.4502)"
         id="path20" />
    </clipPath>
    <clipPath
       clipPathUnits="userSpaceOnUse"
       id="clipPath22">
      <path
         d="M 0,364 H 459.334 V 0 H 0 Z"
         transform="translate(-105.7798,-228.73441)"
         id="path22" />
    </clipPath>
    <clipPath
       clipPathUnits="userSpaceOnUse"
       id="clipPath24">
      <path
         d="M 0,364 H 459.334 V 0 H 0 Z"
         transform="translate(-85.319305,-185.8672)"
         id="path24" />
    </clipPath>
    <clipPath
       clipPathUnits="userSpaceOnUse"
       id="clipPath26">
      <path
         d="M 0,364 H 459.334 V 0 H 0 Z"
         transform="translate(-101.2012,-227.96441)"
         id="path26" />
    </clipPath>
    <clipPath
       clipPathUnits="userSpaceOnUse"
       id="clipPath28">
      <path
         d="M 0,364 H 459.334 V 0 H 0 Z"
         transform="translate(-148.873,-246.47171)"
         id="path28" />
    </clipPath>
    <clipPath
       clipPathUnits="userSpaceOnUse"
       id="clipPath30">
      <path
         d="M 0,364 H 459.334 V 0 H 0 Z"
         transform="translate(-156.874,-237.37501)"
         id="path30" />
    </clipPath>
  </defs>
  <g
     inkscape:label="Layer 1"
     inkscape:groupmode="layer"
     id="layer1"
     transform="translate(-43.656249,-101.86459)">
    <path
       id="path1"
       d="m 62.258039,178.24306 v 16.63154 h -2.17041 v -2.06292 c -0.923975,0.78858 -1.95957,1.38079 -3.108854,1.77767 -1.147217,0.39687 -2.401921,0.59531 -3.766178,0.59531 -2.425692,0 -4.49585,-0.61598 -6.20944,-1.84795 -1.714624,-1.23197 -2.571419,-2.72955 -2.571419,-4.49378 0,-1.72806 0.865063,-3.20497 2.596223,-4.43177 1.730127,-1.22887 3.812688,-1.84382 6.246647,-1.84382 1.405599,0 2.676839,0.20981 3.815788,0.62839 1.137915,0.41961 2.137337,1.048 2.997233,1.88515 v -6.83782 z m -8.809798,5.81256 c -1.229899,0 -2.36368,0.21291 -3.402376,0.63666 -1.036629,0.42168 -1.862418,1.01492 -2.476334,1.77767 -0.611849,0.76377 -0.917774,1.57303 -0.917774,2.42672 0,0.84646 0.307992,1.65571 0.926042,2.42673 0.620117,0.77204 1.451074,1.37252 2.492871,1.80247 1.043864,0.42995 2.164209,0.64492 3.361035,0.64492 1.207161,0 2.350244,-0.21187 3.431315,-0.63665 1.080037,-0.42685 1.910994,-1.00459 2.492871,-1.73219 0.580843,-0.72968 0.872298,-1.5503 0.872298,-2.4598 0,-1.39113 -0.65319,-2.55282 -1.95957,-3.48506 -1.304314,-0.93431 -2.910417,-1.40147 -4.820378,-1.40147 z m 13.79864,-5.81256 h 2.203483 v 6.78408 c 0.889869,-0.82372 1.869653,-1.4397 2.939356,-1.84795 1.071769,-0.40721 2.232421,-0.61185 3.480924,-0.61185 1.278475,0 2.412256,0.22738 3.402376,0.68213 0.992188,0.45475 1.723926,1.0666 2.195216,1.83555 0.473354,0.76894 0.711066,1.97404 0.711066,3.61321 v 6.17637 h -2.203481 v -5.72575 c 0,-1.38079 -0.07855,-2.3027 -0.235645,-2.76572 -0.272853,-0.79375 -0.768947,-1.3901 -1.488282,-1.79007 -0.719336,-0.40204 -1.66088,-0.60358 -2.8236,-0.60358 -1.331185,0 -2.52491,0.30902 -3.580143,0.92604 -1.053166,0.61805 -1.747697,1.38286 -2.083594,2.29443 -0.209806,0.58705 -0.314193,1.67432 -0.314193,3.26182 v 4.40283 h -2.203483 z m 36.715069,4.63021 v 12.00133 h -2.17454 v -2.06292 c -0.92398,0.78858 -1.959575,1.38079 -3.108858,1.77767 -1.147215,0.39687 -2.401919,0.59531 -3.766178,0.59531 -2.422591,0 -4.492748,-0.61598 -6.209438,-1.84795 -1.714624,-1.23197 -2.571419,-2.72955 -2.571419,-4.49378 0,-1.72806 0.865061,-3.20497 2.596222,-4.43177 1.730128,-1.22887 3.812688,-1.84382 6.246647,-1.84382 1.4056,0 2.676839,0.20981 3.815789,0.62839 1.137913,0.41961 2.137335,1.048 2.997235,1.88515 v -2.20761 z m -8.813931,1.18235 c -1.226798,0 -2.359547,0.21291 -3.398241,0.63666 -1.039731,0.42168 -1.866554,1.01492 -2.480468,1.77767 -0.611851,0.76377 -0.917776,1.57303 -0.917776,2.42672 0,0.84646 0.307992,1.65571 0.926041,2.42673 0.62012,0.77204 1.451077,1.37252 2.492873,1.80247 1.043865,0.42995 2.16421,0.64492 3.361033,0.64492 1.207163,0 2.350244,-0.21187 3.431318,-0.63665 1.080036,-0.42685 1.910991,-1.00459 2.492871,-1.73219 0.58394,-0.72968 0.87643,-1.5503 0.87643,-2.4598 0,-1.39113 -0.65319,-2.55282 -1.95957,-3.48506 -1.306378,-0.93431 -2.914551,-1.40147 -4.824511,-1.40147 z m 12.932541,-1.18235 h 2.24896 v 1.75286 c 0.6718,-0.68833 1.38079,-1.20406 2.12494,-1.54616 0.74414,-0.34106 1.51928,-0.51263 2.3275,-0.51263 0.60875,0 1.25884,0.13539 1.9513,0.40515 l -1.14515,1.30224 c -0.46302,-0.14056 -0.85162,-0.21084 -1.16582,-0.21084 -0.73587,0 -1.44487,0.21291 -2.12493,0.63666 -0.6811,0.42168 -1.20096,1.07797 -1.55856,1.96783 -0.27285,0.6842 -0.40928,2.06603 -0.40928,4.14652 v 4.0597 h -2.24896 z m 10.51822,0 h 2.18695 v 2.07532 c 0.76585,-0.76584 1.55236,-1.32498 2.36058,-1.67845 1.11001,-0.46819 2.27996,-0.7028 3.50986,-0.7028 0.82682,0 1.61231,0.11472 2.35645,0.34313 0.7462,0.22635 1.35599,0.52917 1.82728,0.90951 0.47129,0.37827 0.88056,0.91984 1.22783,1.62471 0.73277,-0.94258 1.65054,-1.65778 2.75332,-2.14561 1.10174,-0.48782 2.2872,-0.73174 3.55534,-0.73174 1.18442,0 2.23035,0.20981 3.13779,0.62839 0.90951,0.41961 1.5844,1.00355 2.02572,1.75286 0.44028,0.75034 0.66145,1.87482 0.66145,3.37344 v 6.55257 h -2.25309 v -6.55257 c 0,-1.28674 -0.13126,-2.17041 -0.39274,-2.64997 -0.26252,-0.48162 -0.71107,-0.87023 -1.34772,-1.16582 -0.63459,-0.29455 -1.39113,-0.44235 -2.26963,-0.44235 -1.0728,0 -2.05259,0.22221 -2.93936,0.66559 -0.88469,0.44132 -1.53272,1.0294 -1.94303,1.76527 -0.40824,0.73381 -0.61185,1.95957 -0.61185,3.67936 v 4.70049 h -2.18695 v -6.14329 c 0,-1.44901 -0.12815,-2.43293 -0.38447,-2.95176 -0.25631,-0.5178 -0.7059,-0.93224 -1.34772,-1.24437 -0.63975,-0.31419 -1.3994,-0.47129 -2.27789,-0.47129 -1.017,0 -1.96991,0.21704 -2.85668,0.64906 -0.8878,0.42995 -1.54409,1.00872 -1.96784,1.73633 -0.42478,0.7276 -0.63665,1.84174 -0.63665,3.34036 v 5.08496 h -2.18695 z m 47.30254,0 v 12.00133 h -2.17455 v -2.06292 c -0.92397,0.78858 -1.95956,1.38079 -3.10885,1.77767 -1.14722,0.39687 -2.40192,0.59531 -3.76618,0.59531 -2.42259,0 -4.49275,-0.61598 -6.20944,-1.84795 -1.71462,-1.23197 -2.57141,-2.72955 -2.57141,-4.49378 0,-1.72806 0.86506,-3.20497 2.59622,-4.43177 1.73013,-1.22887 3.81269,-1.84382 6.24664,-1.84382 1.4056,0 2.67684,0.20981 3.81579,0.62839 1.13792,0.41961 2.13734,1.048 2.99723,1.88515 v -2.20761 z m -8.81393,1.18235 c -1.2268,0 -2.35955,0.21291 -3.39824,0.63666 -1.03974,0.42168 -1.86656,1.01492 -2.48047,1.77767 -0.61185,0.76377 -0.91777,1.57303 -0.91777,2.42672 0,0.84646 0.30798,1.65571 0.92604,2.42673 0.62011,0.77204 1.45107,1.37252 2.49287,1.80247 1.04386,0.42995 2.16421,0.64492 3.36103,0.64492 1.20716,0 2.35025,-0.21187 3.43132,-0.63665 1.08003,-0.42685 1.91099,-1.00459 2.49287,-1.73219 0.58394,-0.72968 0.87643,-1.5503 0.87643,-2.4598 0,-1.39113 -0.65319,-2.55282 -1.95957,-3.48506 -1.30638,-0.93431 -2.91455,-1.40147 -4.82451,-1.40147 z m 0,0"
       style="display:inline;fill:#1d1d1b;fill-opacity:1;fill-rule:nonzero;stroke:none;stroke-width:0.295362"
       aria-label="dharma" />
    <path
       id="path2"
       d="M 0,0 C 25.822,11.456 27.201,29.926 21.716,50.583 41.366,22.036 14.092,-0.385 0,0"
       style="display:inline;fill:#1d1d1b;fill-opacity:1;fill-rule:nonzero;stroke:none"
       transform="matrix(0.35277776,0,0,-0.35277776,155.98771,161.81718)"
       clip-path="url(#clipPath3)" />
    <path
       id="path4"
       d="m 0,0 c -0.764,0.021 -1.529,0.042 -2.294,0.063 -3.154,0.085 -6.636,0.56 -9.736,-0.012 -4.042,-0.745 -8.268,-2.235 -11.571,-4.732 -1.733,-1.311 -2.939,-3.12 -3.797,-5.092 -0.909,-2.085 -2.085,-4.326 -2.602,-6.537 -0.72,-3.077 -1.343,-6.25 -2.871,-8.92 -1.75,-3.061 -4.069,-5.757 -6.326,-8.466 -2.173,-2.611 -4.621,-5.117 -6.013,-8.331 -0.841,-1.944 -0.725,-4.002 -1.037,-6.105 -0.321,-2.164 -2.151,-3.602 -3.516,-5.131 -1.512,-1.696 -2.984,-3.373 -4.322,-5.186 -0.81,-1.096 -1.823,-2.169 -2.364,-3.459 -1.022,-2.435 0.873,-2.312 2.715,-2.995 1.532,-0.569 3.04,-1.219 4.713,-1.632 1.551,-0.382 2.973,-1.002 4.618,-1.126 1.481,-0.111 2.981,-0.11 4.469,-0.15 3.387,-0.092 5.944,0.493 8.931,1.99 2.415,1.211 5.444,2.902 6.409,5.567 1.89,5.219 -2.787,9.696 -0.605,14.946 1.101,2.649 1.058,5.324 1.137,8.207 0.084,3.111 0.465,5.02 2.064,7.7 1.546,2.591 3.541,4.729 5.618,6.836 1.515,1.535 3.381,2.665 4.864,4.197 1.01,1.044 1.694,2.27 2.895,3.149 2.774,2.031 6.213,2.906 9.622,2.812 1.071,-0.029 2.142,-0.058 3.213,-0.087 1.453,-0.04 3.32,-0.348 4.702,-0.814 2.288,-0.77 4.235,-2.069 6.765,-1.342 0.448,0.128 0.873,0.312 1.274,0.543 l 0.003,0.077 c 1.161,-1.197 2.748,-1.88 3.757,-3.292 0.882,-1.234 1.278,-2.661 2.22,-3.906 1.967,-2.599 3.946,-4.679 7.013,-5.382 2.878,-0.661 5.588,-1.028 8.471,-1.356 2.174,-0.248 6.064,-0.746 7.608,-2.218 l 0.969,0.02 c -1.617,-0.64 -3.058,-1.496 -4.011,-2.567 -2.02,-2.272 -2.198,-8.051 -1.115,-10.811 2.532,-6.453 9.562,-9.739 16.188,-10.145 3.26,-0.199 6.777,-0.433 10.001,-0.106 3.454,0.352 7.078,1.826 10.518,1.881 7.26,0.114 12.831,-4.27 19.899,-5.215 3.426,-0.459 7.48,-0.344 10.602,1.077 3.857,1.755 5.485,6.32 9.316,7.756 2.97,1.114 5.824,2.413 8.278,4.115 1.471,1.019 2.804,2.051 4.024,3.395 2.001,2.203 4.268,4.329 5.401,7.156 0.515,1.286 0.799,2.647 1.175,3.977 -2.595,0.943 -6.808,0.332 -9.639,0.409 -3.516,0.096 -7.057,-0.416 -10.493,-0.863 -3.429,-0.447 -7.31,-0.709 -10.51,-1.894 -1.529,-0.567 -3.064,-1.571 -4.533,-2.377 -1.474,-0.809 -2.861,-1.201 -4.535,-1.716 -1.492,-0.459 -2.88,-0.973 -3.946,-2.221 -1.019,-1.192 -0.808,-2.929 -1.781,-3.961 -1.6,-1.7 -8.782,-0.424 -11.3,-0.355 -3.308,0.09 -6.324,0.39 -9.474,0.935 -0.679,0.117 -1.683,-0.078 -2.296,0.217 -1.311,0.634 -0.813,0.873 -0.977,2.206 -0.074,0.598 -0.716,1.617 -0.387,2.185 0.371,0.64 1.958,0.402 2.617,0.413 3.512,0.054 6.996,-0.328 10.347,0.214 3.385,0.546 6.788,0.986 10.083,1.696 6.635,1.432 13.624,2.944 19.375,6.91 1.02,0.704 2.075,1.357 3.074,2.089 0.74,0.543 1.417,1.346 2.419,1.26 1.017,-0.088 2.063,-0.28 3.11,-0.338 2.217,-0.122 4.436,-0.194 6.657,-0.203 3.711,-0.016 7.427,0.141 11.118,0.552 5.299,0.59 10.505,1.749 15.529,3.533 3.55,1.261 6.967,2.868 10.531,4.087 3.322,1.137 6.749,1.716 10.264,1.419 0.039,-0.003 0.078,-0.007 0.117,-0.01 3.216,-0.287 6.36,-0.938 9.411,-2 2.645,-0.921 5.211,-2.048 7.884,-2.89 1.906,-0.602 3.848,-1.075 5.813,-1.436 1.225,-0.225 2.458,-0.407 3.693,-0.559 2.134,-0.259 4.347,-1.432 6.289,-2.387 1.832,-0.901 3.568,-2.064 5.251,-3.113 3.297,-2.056 7.623,-4.397 9.958,-7.411 -14.033,-0.497 -29.094,2.721 -42.637,-0.189 -1.387,-0.298 -2.51,-1.098 -3.887,-1.434 -1.702,-2.236 -2.778,-5.028 -4.513,-7.317 -0.86,-1.134 -2.273,-1.593 -3.418,-2.404 -1.257,-0.892 -2.427,-1.942 -3.765,-2.778 -2.396,-1.497 -3.965,-3.726 -5.839,-5.992 -0.952,-1.15 -1.84,-2.443 -2.617,-3.609 -0.693,-1.041 -2.094,-2.467 -2.332,-3.776 2.77,-2.262 6.771,-2.685 10.215,-2.946 3.751,-0.284 7.529,-0.364 11.32,-0.468 8.312,-0.226 16.433,0.345 21.511,7.587 1.046,1.493 1.2,2.857 1.776,4.474 0.764,2.14 2.736,2.575 4.09,4.236 1.259,1.544 1.886,2.49 3.994,2.947 1.891,0.411 4.139,0.573 6.077,0.742 3.604,0.315 7.406,-0.035 11.063,-0.134 3.7,-0.101 7.017,-0.142 10.264,-1.614 6.577,-2.982 15.515,-0.642 16.901,7.04 0.215,1.191 0.449,3.983 -0.234,4.981 -0.741,1.081 -2.763,1.117 -3.962,1.763 -3.339,1.797 -6.661,3.658 -9.626,6.009 -3.467,2.749 -7.255,5.514 -10.789,7.928 l 0.508,0.318 C 311.56,16.259 229.205,132.715 121.03,84.981 l -0.405,-0.302 c -0.238,-0.328 -1.27,0.002 -1.621,0.17 -1.53,0.731 0.521,2.205 1.086,2.787 1.334,1.375 2.583,2.83 3.725,4.368 1.323,1.78 2.501,3.67 3.49,5.656 0.917,1.84 1.671,3.76 2.233,5.737 0.529,1.863 0.887,3.776 1.056,5.707 0.161,1.85 0.149,3.716 -0.041,5.564 -0.186,1.8 -0.539,3.582 -1.057,5.315 -0.51,1.708 -1.178,3.368 -1.993,4.953 -0.81,1.576 -1.765,3.078 -2.848,4.481 -1.086,1.406 -2.301,2.713 -3.624,3.898 -1.337,1.198 -2.785,2.273 -4.319,3.206 -1.565,0.952 -3.219,1.756 -4.933,2.402 -1.771,0.667 -3.604,1.164 -5.468,1.489 -1.954,0.341 -3.939,0.492 -5.922,0.465 -2.113,-0.029 -4.222,-0.26 -6.295,-0.669 -2.247,-0.443 -4.451,-1.094 -6.589,-1.914 -2.352,-0.902 -4.623,-2.008 -6.802,-3.27 -2.425,-1.403 -4.736,-2.999 -6.935,-4.734 -2.466,-1.946 -4.791,-4.067 -6.988,-6.311 -2.474,-2.526 -4.786,-5.208 -6.96,-7.997 -2.45,-3.144 -4.724,-6.423 -6.851,-9.794 -1.091,-1.729 -2.143,-3.481 -3.16,-5.255 -0.53,-0.924 -1.05,-1.854 -1.562,-2.789 -0.326,-0.596 -0.623,-1.213 -1.02,-1.768 -0.372,-0.519 -0.855,-0.708 -1.367,-1.068 -1.141,-0.806 -2.293,-1.6 -3.597,-2.123 -2.958,-1.186 -7.476,-2.243 -10.572,-1.045 -2.141,0.829 -1.157,3.571 -0.59,5.301 0.607,1.858 1.655,3.452 2.327,5.188 0.668,1.727 1.19,3.589 1.244,5.56 0.023,0.832 0.32,2.211 -0.326,2.803 -0.266,0.244 -0.823,0.348 -1.336,0.332 -0.695,-0.02 -1.178,-0.783 -1.604,-1.28 -0.476,-0.557 -0.985,-1.085 -1.522,-1.582 -1.064,-0.985 -2.238,-1.846 -3.481,-2.589 -2.59,-1.552 -5.456,-2.594 -8.361,-3.383 -3.148,-0.855 -6.367,-1.424 -9.585,-1.943 -3.345,-0.541 -6.7,-1.021 -10.03,-1.649 -3.282,-0.618 -6.551,-1.377 -9.701,-2.499 -3.056,-1.09 -5.999,-2.537 -8.594,-4.497 -0.825,-0.622 -1.612,-1.294 -2.355,-2.012 -3.915,-3.79 -16.554,-24.683 -26.42,-42.545 -4.684,-8.481 -13.088,-7.647 -14.888,-18.602 0.345,-24.017 41.306,-26.011 43.633,-0.314 l -0.007,-0.25 c -0.049,0.217 0.009,0.519 0.039,0.733 2.668,0.045 5.076,-0.94 7.562,-1.719 2.46,-0.77 4.945,-2.3 6.483,-4.276 1.544,-1.983 2.502,-4.54 2.964,-7.083 0.414,-2.288 -0.144,-5.168 -0.208,-7.504 -0.089,-3.239 0.84,-5.776 2.902,-8.2 z"
       style="display:inline;fill:#1d1d1b;fill-opacity:1;fill-rule:nonzero;stroke:none"
       transform="matrix(0.35277776,0,0,-0.35277776,66.770603,151.74029)"
       clip-path="url(#clipPath5)" />
    <path
       id="path6"
       d="m 0,0 c -0.166,-0.324 -0.856,-1.142 -1.242,-0.774 -0.256,0.243 0.929,1.45 1.053,1.759 0.208,0.526 0.297,1.126 0.472,1.667 0.344,1.067 0.766,2.11 1.284,3.104 0.927,1.776 2.169,3.396 3.754,4.634 3.411,2.664 7.861,3.06 12,2.298 C 17.124,5.436 13.569,-1.089 -0.405,0.042"
       style="display:inline;fill:#ffffff;fill-opacity:1;fill-rule:nonzero;stroke:none"
       transform="matrix(0.35277776,0,0,-0.35277776,61.687708,129.33509)"
       clip-path="url(#clipPath7)" />
    <path
       id="path8"
       d="m 0,0 c -1.88,-2.445 -8.066,-4.352 -8.407,0.359 -0.104,1.426 0.606,2.832 1.745,3.556 1.32,0.839 3.074,1.285 3.858,2.71 0.495,0.9 1.357,4.271 2.482,2.211 C 1.055,6.316 1.887,2.455 0,0"
       style="display:inline;fill:#ffffff;fill-opacity:1;fill-rule:nonzero;stroke:none"
       transform="matrix(0.35277776,0,0,-0.35277776,54.469701,144.45769)"
       clip-path="url(#clipPath9)" />
    <path
       id="path10"
       d="m 0,0 c -1.544,0.687 -5.831,1.618 -6.087,3.683 -0.218,1.744 2.559,3.331 3.681,4.261 0.547,0.452 1.229,0.88 1.902,1.17 C 1.169,9.836 3.041,9.993 4.891,9.745 8.708,9.234 11.786,6.723 15.538,6.06 15.63,3.63 13.178,2.63 11.447,1.422 9.746,0.235 8.008,-0.893 5.844,-1.153 3.717,-1.408 1.928,-0.857 0,0"
       style="display:inline;fill:#ffffff;fill-opacity:1;fill-rule:nonzero;stroke:none"
       transform="matrix(0.35277776,0,0,-0.35277776,79.712607,126.28688)"
       clip-path="url(#clipPath11)" />
    <path
       id="path12"
       d="M 43.656249,178.74811 H 166.36717"
       style="display:inline;fill:none;stroke:#1d1d1b;stroke-width:1.41111;stroke-linecap:butt;stroke-linejoin:miter;stroke-miterlimit:10;stroke-dasharray:none;stroke-opacity:1" />
    <path
       id="path13"
       d="M 0,0 C 25.822,11.456 27.201,29.926 21.716,50.583 41.366,22.036 14.092,-0.385 0,0 Z"
       style="display:inline;fill:none;stroke:#1d1d1b;stroke-width:1;stroke-linecap:butt;stroke-linejoin:miter;stroke-miterlimit:10;stroke-dasharray:none;stroke-opacity:1"
       transform="matrix(0.35277776,0,0,-0.35277776,155.98771,161.81718)"
       clip-path="url(#clipPath14)" />
    <path
       id="path15"
       d="m 0,0 c 1.161,-1.196 2.749,-1.88 3.757,-3.292 0.883,-1.233 1.278,-2.661 2.221,-3.905 1.966,-2.6 3.946,-4.68 7.013,-5.383 2.878,-0.66 5.588,-1.027 8.471,-1.356 2.173,-0.248 6.063,-0.746 7.608,-2.217"
       style="display:inline;fill:none;stroke:#1d1d1b;stroke-width:1;stroke-linecap:butt;stroke-linejoin:miter;stroke-miterlimit:10;stroke-dasharray:none;stroke-opacity:1"
       transform="matrix(0.35277776,0,0,-0.35277776,72.752832,156.68983)"
       clip-path="url(#clipPath16)" />
    <path
       id="path17"
       d="m 0,0 c -2.062,2.424 -2.991,4.961 -2.902,8.2 0.064,2.336 0.623,5.216 0.208,7.504 -0.462,2.543 -1.42,5.1 -2.964,7.083 -1.538,1.976 -4.023,3.506 -6.483,4.276 -2.485,0.779 -4.894,1.764 -7.562,1.719 -0.029,-0.214 -0.088,-0.516 -0.039,-0.733 l 0.007,0.25 c -2.327,-25.696 -43.288,-23.703 -43.633,0.314 1.8,10.955 10.204,10.121 14.888,18.602 9.866,17.862 22.505,38.756 26.42,42.545 0.743,0.718 1.53,1.39 2.355,2.012 2.595,1.96 5.538,3.408 8.594,4.497 3.151,1.123 6.419,1.881 9.701,2.5 3.33,0.627 6.685,1.107 10.03,1.648 3.218,0.52 6.437,1.088 9.585,1.943 2.905,0.789 5.771,1.831 8.361,3.383 1.244,0.743 2.418,1.604 3.481,2.589 0.537,0.498 1.046,1.025 1.522,1.582 0.426,0.497 0.909,1.26 1.603,1.28 0.515,0.016 1.071,-0.088 1.337,-0.332 0.647,-0.591 0.349,-1.97 0.326,-2.803 -0.053,-1.971 -0.575,-3.833 -1.244,-5.559 -0.672,-1.737 -1.72,-3.331 -2.327,-5.188 -0.567,-1.731 -1.551,-4.473 0.59,-5.301 3.095,-1.199 7.614,-0.141 10.572,1.044 1.304,0.523 2.456,1.318 3.597,2.123 0.513,0.361 0.995,0.55 1.367,1.069 0.397,0.554 0.694,1.171 1.02,1.768 0.512,0.934 1.032,1.864 1.562,2.788 1.017,1.774 2.069,3.527 3.16,5.256 2.127,3.37 4.401,6.649 6.851,9.793 2.175,2.789 4.487,5.471 6.961,7.998 2.197,2.243 4.521,4.364 6.987,6.31 2.199,1.736 4.51,3.331 6.935,4.735 2.179,1.261 4.451,2.367 6.802,3.269 2.138,0.82 4.342,1.471 6.588,1.914 2.075,0.409 4.183,0.64 6.296,0.669 1.983,0.027 3.969,-0.124 5.922,-0.465 1.864,-0.324 3.697,-0.822 5.468,-1.489 1.714,-0.646 3.369,-1.45 4.933,-2.402 1.534,-0.933 2.981,-2.008 4.318,-3.205 1.324,-1.186 2.539,-2.493 3.625,-3.899 1.083,-1.403 2.038,-2.905 2.849,-4.481 0.814,-1.585 1.482,-3.245 1.992,-4.953 0.518,-1.733 0.871,-3.515 1.057,-5.314 0.19,-1.849 0.202,-3.715 0.041,-5.565 -0.17,-1.931 -0.527,-3.844 -1.056,-5.706 -0.562,-1.978 -1.316,-3.898 -2.233,-5.738 -0.989,-1.985 -2.167,-3.876 -3.49,-5.657 -1.142,-1.537 -2.391,-2.992 -3.724,-4.367 -0.566,-0.582 -2.617,-2.056 -1.087,-2.787 0.352,-0.168 1.382,-0.497 1.622,-0.17 l 0.404,0.302 c 108.175,47.734 190.53,-68.722 104.011,-104.876 l -0.508,-0.319 c 3.534,-2.414 7.322,-5.178 10.789,-7.927 2.965,-2.352 6.287,-4.213 9.626,-6.01 1.199,-0.646 3.222,-0.682 3.962,-1.763 0.683,-0.998 0.449,-3.79 0.234,-4.98 -1.386,-7.683 -10.324,-10.023 -16.901,-7.04 -3.247,1.471 -6.564,1.512 -10.264,1.613 -3.657,0.099 -7.459,0.449 -11.063,0.135 -1.938,-0.17 -4.186,-0.331 -6.077,-0.743 -2.108,-0.457 -2.735,-1.403 -3.994,-2.947 -1.354,-1.661 -3.326,-2.096 -4.09,-4.236 -0.576,-1.616 -0.73,-2.981 -1.776,-4.474 -5.078,-7.242 -13.199,-7.813 -21.511,-7.587 -3.791,0.104 -7.569,0.184 -11.32,0.468 -3.444,0.261 -7.444,0.685 -10.215,2.946 0.238,1.309 1.639,2.735 2.332,3.776 0.776,1.166 1.665,2.459 2.617,3.609 1.874,2.266 3.443,4.495 5.839,5.992 1.338,0.836 2.508,1.886 3.765,2.778 1.145,0.811 2.559,1.27 3.418,2.404 1.735,2.289 2.811,5.081 4.513,7.317 1.378,0.336 2.5,1.136 3.887,1.434 13.543,2.91 28.604,-0.308 42.637,0.189 -2.335,3.014 -6.661,5.355 -9.958,7.411 -1.683,1.049 -3.419,2.212 -5.251,3.113 -1.942,0.955 -4.155,2.128 -6.289,2.387 -1.235,0.152 -2.468,0.334 -3.692,0.559 -1.966,0.361 -3.908,0.834 -5.814,1.436 -2.673,0.842 -5.239,1.969 -7.884,2.89 -3.05,1.062 -6.195,1.713 -9.411,2 -0.039,0.003 -0.078,0.007 -0.117,0.01 -3.515,0.297 -6.941,-0.282 -10.264,-1.419 -3.564,-1.219 -6.981,-2.826 -10.53,-4.087 -5.025,-1.784 -10.231,-2.943 -15.53,-3.533 -3.691,-0.411 -7.407,-0.567 -11.119,-0.552 -2.219,0.009 -4.439,0.081 -6.656,0.203 -1.047,0.058 -2.093,0.25 -3.11,0.338 -1.002,0.086 -1.679,-0.717 -2.418,-1.26 -0.999,-0.732 -2.055,-1.385 -3.074,-2.088 -5.752,-3.967 -12.742,-5.479 -19.376,-6.911 -3.296,-0.71 -6.698,-1.15 -10.083,-1.696 -3.352,-0.542 -6.835,-0.16 -10.347,-0.214 -0.659,-0.01 -2.245,0.227 -2.616,-0.413 -0.33,-0.568 0.312,-1.587 0.386,-2.185 0.164,-1.333 -0.334,-1.572 0.977,-2.205 0.614,-0.296 1.617,-0.101 2.296,-0.218 3.151,-0.545 6.167,-0.845 9.474,-0.935 2.518,-0.069 9.7,-1.345 11.301,0.355 0.972,1.032 0.761,2.769 1.781,3.962 1.065,1.247 2.453,1.761 3.945,2.22 1.674,0.515 3.061,0.908 4.534,1.716 1.47,0.806 3.005,1.81 4.533,2.377 3.2,1.185 7.082,1.447 10.511,1.894 3.436,0.447 6.977,0.96 10.493,0.863 2.83,-0.077 7.044,0.534 9.64,-0.409 -0.377,-1.33 -0.661,-2.691 -1.177,-3.977 -1.132,-2.827 -3.398,-4.953 -5.4,-7.156 -1.221,-1.344 -2.553,-2.376 -4.024,-3.395 -2.454,-1.702 -5.309,-3.001 -8.277,-4.115 -3.832,-1.436 -5.461,-6.001 -9.317,-7.756 -3.122,-1.421 -7.176,-1.536 -10.602,-1.077 -7.068,0.945 -12.639,5.329 -19.899,5.215 -3.439,-0.055 -7.065,-1.529 -10.518,-1.881 -3.224,-0.327 -6.741,-0.093 -10.001,0.107 -6.626,0.405 -13.656,3.691 -16.188,10.144 -1.083,2.76 -0.905,8.539 1.115,10.811 2.446,2.751 8.116,4.084 11.702,3.979 1.706,-0.051 3.704,-0.375 5.349,0.059 1.671,0.439 3.198,1.607 4.772,2.37 1.321,0.64 8.189,3.177 8.284,4.238"
       style="display:inline;fill:none;stroke:#1d1d1b;stroke-width:1;stroke-linecap:round;stroke-linejoin:round;stroke-miterlimit:10;stroke-dasharray:none;stroke-opacity:1"
       transform="matrix(0.35277776,0,0,-0.35277776,66.713064,151.69447)"
       clip-path="url(#clipPath18)" />
    <path
       id="path19"
       d="m 0,0 c -0.947,0.111 -2.545,-0.306 -3.759,-0.272 -1.333,0.036 -2.668,0.072 -4.002,0.108 -3.154,0.086 -6.636,0.56 -9.736,-0.012 -4.042,-0.745 -8.268,-2.234 -11.57,-4.731 -1.734,-1.312 -2.939,-3.12 -3.798,-5.093 -0.908,-2.085 -2.085,-4.325 -2.602,-6.536 -0.72,-3.077 -1.343,-6.25 -2.87,-8.921 -1.75,-3.061 -4.07,-5.757 -6.327,-8.466 -2.173,-2.61 -4.621,-5.117 -6.013,-8.331 -0.841,-1.943 -0.724,-4.002 -1.036,-6.104 -0.322,-2.164 -2.152,-3.603 -3.516,-5.131 -1.513,-1.697 -2.984,-3.373 -4.323,-5.187 -0.81,-1.095 -1.823,-2.169 -2.364,-3.459 -1.022,-2.434 0.873,-2.311 2.715,-2.995 1.533,-0.568 3.04,-1.219 4.713,-1.632 1.551,-0.382 2.973,-1.002 4.618,-1.126 1.481,-0.111 2.981,-0.109 4.469,-0.149 3.387,-0.093 5.944,0.492 8.931,1.989 2.415,1.211 5.444,2.902 6.409,5.568 1.89,5.218 -2.787,9.696 -0.605,14.946 1.101,2.648 1.059,5.323 1.137,8.207 0.085,3.11 0.466,5.019 2.064,7.699 1.546,2.592 3.541,4.73 5.618,6.836 1.515,1.535 3.381,2.665 4.864,4.197 1.01,1.044 1.694,2.271 2.895,3.15 2.775,2.03 6.214,2.905 9.623,2.811 1.07,-0.028 2.141,-0.057 3.213,-0.087 1.451,-0.04 3.319,-0.347 4.701,-0.813 2.288,-0.771 4.236,-2.07 6.764,-1.343 3.777,1.085 5.899,6.087 5.901,9.686"
       style="display:inline;fill:none;stroke:#1d1d1b;stroke-width:1;stroke-linecap:butt;stroke-linejoin:miter;stroke-miterlimit:10;stroke-dasharray:none;stroke-opacity:1"
       transform="matrix(0.35277776,0,0,-0.35277776,68.699167,151.66035)"
       clip-path="url(#clipPath20)" />
    <path
       id="path21"
       d="m 0,0 c -0.166,-0.324 -0.855,-1.141 -1.242,-0.774 -0.256,0.243 0.929,1.45 1.052,1.76 0.21,0.526 0.298,1.125 0.473,1.666 0.344,1.066 0.765,2.11 1.285,3.104 0.926,1.776 2.168,3.396 3.752,4.634 3.412,2.664 7.862,3.06 12.001,2.298 C 17.124,5.436 13.569,-1.089 -0.405,0.042"
       style="display:inline;fill:none;stroke:#1d1d1b;stroke-width:1;stroke-linecap:butt;stroke-linejoin:miter;stroke-miterlimit:10;stroke-dasharray:none;stroke-opacity:1"
       transform="matrix(0.35277776,0,0,-0.35277776,61.687708,129.33509)"
       clip-path="url(#clipPath22)" />
    <path
       id="path23"
       d="m 0,0 c -1.88,-2.445 -8.066,-4.352 -8.407,0.359 -0.104,1.426 0.606,2.832 1.745,3.556 1.32,0.839 3.074,1.285 3.858,2.71 0.495,0.9 1.357,4.271 2.482,2.211 C 1.055,6.316 1.887,2.455 0,0 Z"
       style="display:inline;fill:none;stroke:#1d1d1b;stroke-width:1;stroke-linecap:butt;stroke-linejoin:miter;stroke-miterlimit:10;stroke-dasharray:none;stroke-opacity:1"
       transform="matrix(0.35277776,0,0,-0.35277776,54.469701,144.45769)"
       clip-path="url(#clipPath24)" />
    <path
       id="path25"
       d="M 0,0 C 1.996,17.252 12.421,18.969 21.988,16.707"
       style="display:inline;fill:none;stroke:#1d1d1b;stroke-width:1;stroke-linecap:butt;stroke-linejoin:miter;stroke-miterlimit:10;stroke-dasharray:none;stroke-opacity:1"
       transform="matrix(0.35277776,0,0,-0.35277776,60.07248,129.60673)"
       clip-path="url(#clipPath26)" />
    <path
       id="path27"
       d="m 0,0 c 5.104,10.845 21.33,2.613 28.848,-0.351 0.861,-0.338 2.845,-0.772 3.112,-1.641 0.456,-1.479 -2.05,-1.663 -2.968,-2.273 -2.491,-1.655 -3.868,-4.786 -6.193,-6.739 -2.346,-1.972 -4.695,-3.206 -7.808,-3.285 -1.298,-0.033 -2.741,-0.042 -4.03,0.11 -1.475,0.173 -2.145,1.102 -3.426,1.7 -2.877,1.344 -6.241,1.77 -9.155,3.52"
       style="display:inline;fill:none;stroke:#1d1d1b;stroke-width:1;stroke-linecap:butt;stroke-linejoin:miter;stroke-miterlimit:10;stroke-dasharray:none;stroke-opacity:1"
       transform="matrix(0.35277776,0,0,-0.35277776,76.890032,123.07777)"
       clip-path="url(#clipPath28)" />
    <path
       id="path29"
       d="m 0,0 c -1.544,0.687 -5.831,1.618 -6.087,3.683 -0.218,1.743 2.559,3.331 3.682,4.261 0.546,0.452 1.227,0.88 1.902,1.171 1.672,0.722 3.545,0.878 5.394,0.63 C 8.708,9.235 11.786,6.723 15.539,6.059 15.63,3.63 13.178,2.63 11.448,1.423 9.747,0.234 8.008,-0.893 5.844,-1.153 3.717,-1.408 1.929,-0.857 0,0 Z"
       style="display:inline;fill:none;stroke:#1d1d1b;stroke-width:1;stroke-linecap:butt;stroke-linejoin:miter;stroke-miterlimit:10;stroke-dasharray:none;stroke-opacity:1"
       transform="matrix(0.35277776,0,0,-0.35277776,79.712607,126.28688)"
       clip-path="url(#clipPath30)" />
  </g>
</svg>
