<?xml version="1.0" encoding="UTF-8" standalone="no"?>
<!-- Created with Inkscape (http://www.inkscape.org/) -->

<svg
   version="1.1"
   id="svg1"
   width="121.71702mm"
   height="99.034966mm"
   viewBox="0 0 460.0328 374.30538"
   sodipodi:docname="dharma_big.svg"
   inkscape:version="1.3.2 (091e20ef0f, 2023-11-25)"
   xmlns:inkscape="http://www.inkscape.org/namespaces/inkscape"
   xmlns:sodipodi="http://sodipodi.sourceforge.net/DTD/sodipodi-0.dtd"
   xmlns="http://www.w3.org/2000/svg"
   xmlns:svg="http://www.w3.org/2000/svg">
  <defs
     id="defs1">
    <clipPath
       clipPathUnits="userSpaceOnUse"
       id="clipPath3">
      <path
         d="M 0,364 H 459.334 V 0 H 0 Z"
         transform="translate(-373.08691,-136.6592)"
         id="path3" />
    </clipPath>
    <clipPath
       clipPathUnits="userSpaceOnUse"
       id="clipPath5">
      <path
         d="M 0,364 H 459.334 V 0 H 0 Z"
         transform="translate(-120.18801,-165.2236)"
         id="path5" />
    </clipPath>
    <clipPath
       clipPathUnits="userSpaceOnUse"
       id="clipPath7">
      <path
         d="M 0,364 H 459.334 V 0 H 0 Z"
         transform="translate(-105.7798,-228.73441)"
         id="path7" />
    </clipPath>
    <clipPath
       clipPathUnits="userSpaceOnUse"
       id="clipPath9">
      <path
         d="M 0,364 H 459.334 V 0 H 0 Z"
         transform="translate(-85.319305,-185.8672)"
         id="path9" />
    </clipPath>
    <clipPath
       clipPathUnits="userSpaceOnUse"
       id="clipPath11">
      <path
         d="M 0,364 H 459.334 V 0 H 0 Z"
         transform="translate(-156.874,-237.37501)"
         id="path11" />
    </clipPath>
    <clipPath
       clipPathUnits="userSpaceOnUse"
       id="clipPath14">
      <path
         d="M 0,364 H 459.334 V 0 H 0 Z"
         transform="translate(-373.08691,-136.6592)"
         id="path14" />
    </clipPath>
    <clipPath
       clipPathUnits="userSpaceOnUse"
       id="clipPath16">
      <path
         d="M 0,364 H 459.334 V 0 H 0 Z"
         transform="translate(-137.14551,-151.19341)"
         id="path16" />
    </clipPath>
    <clipPath
       clipPathUnits="userSpaceOnUse"
       id="clipPath18">
      <path
         d="M 0,364 H 459.334 V 0 H 0 Z"
         transform="translate(-120.0249,-165.3535)"
         id="path18" />
    </clipPath>
    <clipPath
       clipPathUnits="userSpaceOnUse"
       id="clipPath20">
      <path
         d="M 0,364 H 459.334 V 0 H 0 Z"
         transform="translate(-125.6548,-165.4502)"
         id="path20" />
    </clipPath>
    <clipPath
       clipPathUnits="userSpaceOnUse"
       id="clipPath22">
      <path
         d="M 0,364 H 459.334 V 0 H 0 Z"
         transform="translate(-105.7798,-228.73441)"
         id="path22" />
    </clipPath>
    <clipPath
       clipPathUnits="userSpaceOnUse"
       id="clipPath24">
      <path
         d="M 0,364 H 459.334 V 0 H 0 Z"
         transform="translate(-85.319305,-185.8672)"
         id="path24" />
    </clipPath>
    <clipPath
       clipPathUnits="userSpaceOnUse"
       id="clipPath26">
      <path
         d="M 0,364 H 459.334 V 0 H 0 Z"
         transform="translate(-101.2012,-227.96441)"
         id="path26" />
    </clipPath>
    <clipPath
       clipPathUnits="userSpaceOnUse"
       id="clipPath28">
      <path
         d="M 0,364 H 459.334 V 0 H 0 Z"
         transform="translate(-148.873,-246.47171)"
         id="path28" />
    </clipPath>
    <clipPath
       clipPathUnits="userSpaceOnUse"
       id="clipPath30">
      <path
         d="M 0,364 H 459.334 V 0 H 0 Z"
         transform="translate(-156.874,-237.37501)"
         id="path30" />
    </clipPath>
    <rect
       x="482.85074"
       y="89.416809"
       width="555.19708"
       height="130.06081"
       id="rect1" />
  </defs>
  <sodipodi:namedview
     id="namedview1"
     pagecolor="#ffffff"
     bordercolor="#000000"
     borderopacity="0.25"
     inkscape:showpageshadow="2"
     inkscape:pageopacity="0.0"
     inkscape:pagecheckerboard="0"
     inkscape:deskcolor="#d1d1d1"
     inkscape:zoom="1.178026"
     inkscape:cx="222.40595"
     inkscape:cy="184.20645"
     inkscape:window-width="1280"
     inkscape:window-height="775"
     inkscape:window-x="0"
     inkscape:window-y="0"
     inkscape:window-maximized="1"
     inkscape:current-layer="layer1"
     inkscape:document-units="mm" />
  <g
     inkscape:groupmode="layer"
     id="layer1"
     inkscape:label="Calque 13"
     transform="matrix(1.1120572,0,0,1.4571907,-644.91281,668.1187)"
     style="display:inline;fill:#ffffff">
    <path
       id="path12"
       d="M 579.92773,-258.68725 H 993.60496"
       style="display:inline;fill:none;stroke:#000000;stroke-width:5.03696;stroke-linecap:butt;stroke-linejoin:miter;stroke-miterlimit:10;stroke-dasharray:none;stroke-opacity:1"
       inkscape:label="path12" />
    <path
       d="m 614.90933,-201.62998 q -10.1285,0 -15.64291,-4.99386 -5.40184,-5.06955 -5.40184,-15.96524 0,-10.97137 5.40184,-16.0409 5.51441,-5.06951 15.75545,-5.06951 6.0771,0 9.79086,1.8916 3.82632,1.81595 6.07709,4.76689 h 0.56269 q -0.3376,-1.81596 -0.45016,-4.01023 -0.11253,-2.26994 -0.11253,-4.16155 v -6.35582 q 0,-3.40492 -2.58839,-4.23722 -2.47585,-0.90797 -5.852,-0.90797 h -0.90031 v -3.17793 h 19.58174 v 49.182 q 0,3.32922 2.47583,4.23721 2.47586,0.90797 5.96459,0.90797 h 0.9003 v 3.17793 h -17.89366 l -1.23793,-6.88549 h -0.33764 q -2.3633,3.55624 -6.18961,5.59918 -3.71377,2.04294 -9.9034,2.04294 z m 2.13822,-4.61553 q 7.76518,0 10.80372,-4.16156 3.03855,-4.16157 3.03855,-12.18201 0,-8.02046 -3.03855,-12.25765 -2.926,-4.23722 -10.91625,-4.23722 -6.63979,0 -9.56579,4.31289 -2.92602,4.2372 -2.92602,12.25765 0,8.17179 2.92602,12.25767 2.926,4.01023 9.67832,4.01023 z m 37.25029,3.8589 v -3.17793 h 0.78778 q 3.48871,0 5.96455,-0.90797 2.47585,-0.90799 2.47585,-4.53988 v -40.55621 q 0,-3.40492 -2.58837,-4.23722 -2.47586,-0.90797 -5.85203,-0.90797 h -0.78778 v -3.17793 h 19.46922 v 16.8732 q 0,1.96729 -0.22507,4.01022 -0.11255,2.04295 -0.11255,2.19429 h 0.45015 q 2.13825,-3.10226 5.96457,-4.99388 3.93885,-1.8916 9.67833,-1.8916 8.66548,0 13.27958,3.55624 4.72661,3.55622 4.72661,11.27403 v 17.85683 q 0,3.63189 2.13825,4.53988 2.25078,0.90797 5.73947,0.90797 h 0.33762 v 3.17793 h -18.45631 v -26.17999 q 0,-4.91817 -2.5884,-7.64207 -2.47584,-2.72395 -8.55294,-2.72395 -6.4147,0 -9.45327,3.4049 -2.92598,3.32925 -2.92598,8.92842 v 15.96522 q 0,3.40493 2.47584,4.23723 2.47587,0.83231 5.96454,0.83231 h 0.33763 v 3.17793 z m 85.52955,0.75663 q -6.86488,0 -11.47895,-2.95092 -4.50155,-2.95093 -4.50155,-9.15541 0,-6.05317 5.852,-8.92843 5.85203,-2.87525 17.78112,-3.17791 l 8.55296,-0.22699 v -4.5399 q 0,-2.79957 -0.67524,-4.84252 -0.56267,-2.11861 -2.58839,-3.25357 -2.0257,-1.21064 -6.18962,-1.21064 -5.85202,0 -7.65263,2.3456 -1.68809,2.26995 -1.68809,5.90186 -4.50154,0 -6.86488,-1.13497 -2.25075,-1.13497 -2.25075,-3.63191 0,-3.70756 5.40184,-5.44786 5.51441,-1.81594 13.6172,-1.81594 9.56579,0 14.40496,2.95091 4.83917,2.95092 4.83917,10.13904 v 19.59715 q 0,3.17792 1.463,4.31288 1.46301,1.13497 4.9517,1.13497 h 0.33763 v 3.17793 h -14.51752 l -1.68809,-6.58284 h -0.78774 q -2.13825,2.11861 -4.2765,3.78322 -2.13821,1.66463 -4.9517,2.64828 -2.70093,0.90797 -7.08993,0.90797 z m 2.81347,-4.38856 q 6.18964,0 9.79087,-2.95091 3.71379,-3.02658 3.71379,-7.86911 v -6.12885 l -6.52727,0.22701 q -8.55295,0.22699 -11.9291,2.64826 -3.26362,2.34561 -3.26362,6.73414 0,3.55624 2.02569,5.44785 2.02571,1.89161 6.18964,1.89161 z m 38.15071,3.63193 v -3.17793 h 0.33762 q 3.48872,0 5.96455,-0.90797 2.47586,-0.90799 2.47586,-4.53988 v -23.60736 q 0,-3.4049 -2.47586,-4.23721 -2.47583,-0.90798 -5.85201,-0.90798 h -0.33761 v -3.17791 h 16.43065 l 1.91315,7.7178 h 0.45016 q 1.46303,-2.26995 3.15109,-4.16155 1.68808,-1.96729 4.38901,-3.10225 2.70094,-1.21064 7.08994,-1.21064 5.62694,0 8.32786,1.5133 2.70093,1.51326 2.70093,4.08589 0,2.34559 -2.3633,3.78322 -2.25078,1.43762 -7.5401,1.43762 0,-3.10224 -1.23792,-4.46421 -1.23793,-1.43762 -4.27647,-1.43762 -2.70094,0 -4.61409,1.58896 -1.91316,1.58894 -3.15109,4.08588 -1.1254,2.42127 -1.68808,5.22086 -0.5627,2.72392 -0.5627,5.06953 v 12.18198 q 0,3.40493 2.47586,4.23723 2.47585,0.83231 5.852,0.83231 h 2.81348 v 3.17793 z m 48.95425,0 v -3.17793 h 1.46303 q 3.48869,0 5.62694,-0.90797 2.25075,-0.90799 2.25075,-4.53988 v -23.60736 q 0,-3.4049 -2.36329,-4.23721 -2.25077,-0.90798 -5.62695,-0.90798 h -0.33758 v -3.17791 h 16.76822 l 1.35049,6.12884 h 0.5627 q 2.92599,-4.0859 6.75232,-5.44785 3.93886,-1.43763 9.0031,-1.43763 5.06424,0 9.11563,1.58896 4.0514,1.51328 5.96456,5.5235 h 0.67523 q 2.92601,-4.2372 7.08994,-5.67483 4.27646,-1.43763 9.34071,-1.43763 7.99027,0 12.49182,3.55624 4.50154,3.55622 4.50154,11.27403 v 17.85683 q 0,3.63189 2.13824,4.53988 2.25078,0.90797 5.73948,0.90797 h 0.3376 v 3.17793 h -18.56888 v -26.17999 q 0,-4.91817 -2.36332,-7.64207 -2.36332,-2.72395 -8.1028,-2.72395 -4.27647,0 -6.86487,1.58895 -2.47583,1.58896 -3.60121,4.16156 -1.01288,2.49693 -1.01288,5.52351 v 16.64621 q 0,3.63189 2.13826,4.53988 2.25078,0.90797 5.73947,0.90797 h 0.33762 v 3.17793 h -18.45633 v -26.17999 q 0,-4.91817 -2.36335,-7.64207 -2.36331,-2.72395 -8.21532,-2.72395 -4.38902,0 -7.08991,1.74029 -2.58842,1.74027 -3.71381,4.53987 -1.12538,2.79959 -1.12538,6.05316 v 15.96522 q 0,3.40493 2.47585,4.23723 2.47585,0.83231 5.96454,0.83231 h 0.22509 v 3.17793 z m 116.81526,0.75663 q -6.86488,0 -11.47897,-2.95092 -4.50154,-2.95093 -4.50154,-9.15541 0,-6.05317 5.85202,-8.92843 5.852,-2.87525 17.78112,-3.17791 l 8.55293,-0.22699 v -4.5399 q 0,-2.79957 -0.67523,-4.84252 -0.56268,-2.11861 -2.5884,-3.25357 -2.02568,-1.21064 -6.18961,-1.21064 -5.85202,0 -7.65264,2.3456 -1.68808,2.26995 -1.68808,5.90186 -4.50156,0 -6.86489,-1.13497 -2.25075,-1.13497 -2.25075,-3.63191 0,-3.70756 5.40184,-5.44786 5.51442,-1.81594 13.61721,-1.81594 9.5658,0 14.40495,2.95091 4.83918,2.95092 4.83918,10.13904 v 19.59715 q 0,3.17792 1.463,4.31288 1.463,1.13497 4.95169,1.13497 h 0.33764 v 3.17793 h -14.51752 l -1.68809,-6.58284 h -0.78775 q -2.13824,2.11861 -4.27649,3.78322 -2.13821,1.66463 -4.95171,2.64828 -2.70091,0.90797 -7.08991,0.90797 z m 2.81346,-4.38856 q 6.18964,0 9.79087,-2.95091 3.71378,-3.02658 3.71378,-7.86911 v -6.12885 l -6.52725,0.22701 q -8.55295,0.22699 -11.92911,2.64826 -3.26364,2.34561 -3.26364,6.73414 0,3.55624 2.02572,5.44785 2.0257,1.89161 6.18963,1.89161 z"
       id="text1"
       style="font-stretch:semi-condensed;font-size:96px;font-family:'Noto Serif';-inkscape-font-specification:'Noto Serif, Semi-Condensed';white-space:pre;display:inline;fill:#000000;stroke-width:1.2832"
       aria-label="dharma" />
  </g>
  <g
     id="layer-MC1"
     inkscape:groupmode="layer"
     inkscape:label="Calque 11"
     style="display:inline"
     transform="translate(-81.880198,-74.478012)">
    <path
       id="path2"
       clip-path="url(#clipPath3)"
       style="display:inline;fill:#000000;fill-opacity:1;fill-rule:nonzero;stroke:none"
       d="m -152.51008,169.44192 c -2.113,-0.029 -4.22144,-0.26043 -6.29444,-0.66943 -2.24696,-0.443 -4.45086,-1.09455 -6.58886,-1.91455 -2.352,-0.902 -4.62374,-2.00753 -6.80274,-3.26953 -2.42496,-1.403 -4.73557,-2.99938 -6.93457,-4.73438 -2.46596,-1.94596 -4.79177,-4.06658 -6.98877,-6.31054 -2.47396,-2.526 -4.78547,-5.20762 -6.95947,-7.99658 -2.45,-3.144 -4.72411,-6.42295 -6.85107,-9.79395 -1.091,-1.729 -2.14267,-3.48186 -3.15967,-5.25586 -0.53,-0.924 -1.04956,-1.85406 -1.56152,-2.78906 -0.326,-0.596 -0.624,-1.21307 -1.021,-1.76807 -0.372,-0.519 -0.8547,-0.70787 -1.3667,-1.06787 -1.141,-0.806 -2.29366,-1.59956 -3.59766,-2.12256 -2.95796,-1.186 -7.47581,-2.24243 -10.57177,-1.04443 -2.141,0.829 -1.15587,3.56984 -0.58887,5.2998 0.607,1.858 1.65417,3.45248 2.32617,5.18848 0.668,1.727 1.18965,3.58955 1.24365,5.56055 0.023,0.832 0.32081,2.21024 -0.32519,2.80224 -0.266,0.244 -0.82294,0.34852 -1.33594,0.33252 -0.695,-0.02 -1.178,-0.78327 -1.604,-1.28027 -0.476,-0.557 -0.98498,-1.08503 -1.52198,-1.58203 -1.06396,-0.985 -2.23893,-1.84538 -3.48193,-2.58838 -2.59,-1.552 -5.4549,-2.59479 -8.35986,-3.38379 -3.148,-0.855 -6.36794,-1.42338 -9.58594,-1.94238 -3.345,-0.541 -6.69982,-1.02142 -10.02978,-1.64942 -3.282,-0.618 -6.5502,-1.37702 -9.7002,-2.49902 -3.056,-1.09 -5.99924,-2.53707 -8.59424,-4.49707 -0.825,-0.622 -1.61247,-1.29323 -2.35547,-2.01123 -3.91496,-3.79 -16.55396,-24.684459 -26.41992,-42.546387 -4.68396,-8.480968 -13.08867,-7.647095 -14.88867,-18.602051 0.345,-24.016904 41.3063,-26.010376 43.6333,-0.313476 l -0.007,-0.250489 c -0.049,0.217 0.01,0.519887 0.0396,0.733887 2.66796,0.045 5.07552,-0.940727 7.56152,-1.719727 2.46,-0.769996 4.9454,-2.299886 6.4834,-4.275878 1.544,-1.982992 2.50284,-4.539528 2.96484,-7.08252 0.414,-2.287992 -0.14401,-5.168406 -0.20801,-7.504394 -0.089,-3.238988 0.83986,-5.776207 2.90186,-8.200195 l 0.1626,-0.128907 c -0.764,0.021 -1.52895,0.04199 -2.29395,0.06299 -3.15396,0.085 -6.63685,0.558808 -9.73681,-0.01318 -4.042,-0.744996 -8.26784,-2.234457 -11.5708,-4.731445 -1.733,-1.310996 -2.93888,-3.119805 -3.79688,-5.091797 -0.909,-2.084992 -2.08456,-4.326606 -2.60156,-6.537598 -0.72,-3.076986 -1.3431,-6.2494438 -2.8711,-8.919433 -1.74996,-3.06098788 -4.06966,-5.7578076 -6.32666,-8.4667968 -2.17296,-2.6109896 -4.61975,-5.1165782 -6.01171,-8.3305662 -0.841,-1.943992 -0.72511,-4.002477 -1.03711,-6.105469 -0.321,-2.163992 -2.15213,-3.60089 -3.51709,-5.129882 -1.512,-1.695996 -2.98329,-3.37402 -4.32129,-5.187012 -0.81,-1.095996 -1.82326,-2.1685 -2.36426,-3.458496 -1.022,-2.434992 0.87239,-2.312606 2.71435,-2.995606 1.532,-0.568996 3.04087,-1.218839 4.71387,-1.631835 1.551,-0.382 2.97219,-1.001004 4.61719,-1.125 1.481,-0.111 2.98124,-0.110879 4.46924,-0.150879 3.38696,-0.092 5.94415,0.49373 8.93115,1.990722 2.415,1.210996 5.44369,2.901418 6.40869,5.566406 1.89,5.21898 -2.78698,9.695821 -0.60498,14.945801 1.101,2.648988 1.05918,5.324531 1.13818,8.2075194 0.084,3.1109876 0.46497,5.0206943 2.06397,7.70068348 1.546,2.59098962 3.54071,4.72796922 5.61767,6.83496082 1.515,1.534994 3.38029,2.6647833 4.86329,4.1967773 1.00996,1.043996 1.69499,2.270418 2.89599,3.149414 2.774,2.030992 6.2121,2.9065 9.6211,2.8125 l 3.21386,-0.08789 c 1.453,-0.04 3.32015,-0.346988 4.70215,-0.812988 2.288,-0.769996 4.23465,-2.068793 6.76465,-1.341797 0.448,0.128 0.87341,0.310996 1.27441,0.541992 l 0.003,0.07764 c 1.161,-1.196996 2.74686,-1.880973 3.75586,-3.292969 0.882,-1.233992 1.27871,-2.6602778 2.22071,-3.905273 1.96696,-2.5989896 3.94524,-4.6788386 7.0122,-5.3818358 2.878,-0.6609976 5.58823,-1.02844663 8.47119,-1.35644531 2.174,-0.247999 6.0644,-0.74577935 7.6084,-2.21777339 l 0.96826,0.020508 c -1.61696,-0.6399976 -3.05774,-1.4968751 -4.01074,-2.5678711 -2.02,-2.2719908 -2.19774,-8.0505584 -1.11474,-10.8105464 2.53196,-6.452976 9.56202,-9.739512 16.18798,-10.145508 3.26,-0.199 6.77796,-0.432469 10.00196,-0.105469 3.45396,0.352 7.07761,1.825863 10.51757,1.880859 7.26,0.114 12.83048,-4.269847 19.89844,-5.214843 3.426,-0.459 7.48054,-0.344336 10.60254,1.07666 3.857,1.754992 5.48541,6.320355 9.31641,7.756347 2.96996,1.113996 5.82383,2.412751 8.27783,4.114747 1.471,1.018992 2.80396,2.051515 4.02392,3.395507 2.001,2.202992 4.26788,4.3287733 5.40088,7.1557621 0.515,1.2859948 0.79881,2.6470559 1.17481,3.9770507 -2.595,0.94299624 -6.80771,0.33169172 -9.63867,0.4086914 -3.516,0.0959996 -7.05818,-0.4157946 -10.49414,-0.862793 -3.429,-0.446998 -7.30883,-0.7090477 -10.50879,-1.8940429 -1.529,-0.5669976 -3.06473,-1.5714446 -4.53369,-2.3774414 -1.474,-0.8089968 -2.86116,-1.200334 -4.53516,-1.715332 -1.492,-0.458998 -2.88029,-0.9727079 -3.94629,-2.2207031 -1.019,-1.1919958 -0.80682,-2.9289418 -1.77978,-3.9609378 -1.6,-1.699992 -8.78331,-0.424957 -11.30127,-0.355957 -3.308,0.09 -6.32315,0.391039 -9.47315,0.936035 -0.679,0.117 -1.68387,-0.0782 -2.29687,0.216797 -1.311,0.634 -0.81159,0.873059 -0.97559,2.206055 -0.074,0.597996 -0.71718,1.6160844 -0.38818,2.184082 0.371,0.6399976 1.95867,0.402086 2.61767,0.413086 3.512,0.054 6.99523,-0.3281308 10.34619,0.2138672 3.385,0.5459976 6.78899,0.9862918 10.08399,1.696289 6.63496,1.4319944 13.62306,2.9436838 19.37402,6.90966786 1.02,0.70399724 2.07571,1.35686994 3.07471,2.08886714 0.74,0.542998 1.41646,1.3472301 2.41846,1.2612305 1.01696,-0.088 2.06286,-0.2803793 3.10986,-0.3383789 2.217,-0.1219996 4.43675,-0.1946133 6.65771,-0.2036133 3.711,-0.016 7.42717,0.1412477 11.11817,0.5522461 5.29896,0.5899976 10.50481,1.7492102 15.52881,3.533203 3.549968,1.2609952 6.966773,2.8679214 10.530757,4.0869134 3.321988,1.136996 6.749176,1.716434 10.26416,1.419434 0.039,-0.003 0.07819,-0.0073 0.117188,-0.01025 3.215984,-0.287 6.359168,-0.937516 9.410156,-1.999512 2.644988,-0.920996 5.212262,-2.0481393 7.885254,-2.8901361 1.905992,-0.6019976 3.847507,-1.0760129 5.812499,-1.4370117 1.224996,-0.2249988 2.457879,-0.4061062 3.692871,-0.5581054 2.133992,-0.2589992 4.346583,-1.4326989 6.288575,-2.3876953 1.831992,-0.9009964 3.568472,-2.0637973 5.251464,-3.11279291 3.296988,-2.05599169 7.623016,-4.39665639 9.958008,-7.41064439 -14.032944,-0.496998 -29.094262,2.7210235 -42.637206,-0.1889649 -1.386996,-0.2979988 -2.509235,-1.0980832 -3.886231,-1.434082 -1.701992,-2.2359923 -2.778191,-5.0279063 -4.513183,-7.3168943 -0.859996,-1.133996 -2.27395,-1.592813 -3.418946,-2.403809 -1.256992,-0.891996 -2.426652,-1.942812 -3.764648,-2.778808 -2.395992,-1.496996 -3.964875,-3.725223 -5.838867,-5.991211 -0.951996,-1.149996 -1.84068,-2.443379 -2.617676,-3.609375 -0.692996,-1.040996 -2.094035,-2.467375 -2.332035,-3.776367 2.770004,-2.261992 6.77184,-2.684801 10.215824,-2.945801 3.750984,-0.284 7.529328,-0.363285 11.320312,-0.467285 8.311968,-0.226 16.433251,0.344457 21.511231,7.586425 1.045996,1.492996 1.199394,2.856641 1.77539,4.473633 0.763996,2.139992 2.735848,2.575336 4.089844,4.236328 1.258996,1.543996 1.886637,2.490266 3.994629,2.947266 1.890992,0.410996 4.138176,0.572211 6.076172,0.741211 3.603984,0.314996 7.40698,-0.0343 11.063964,-0.133301 3.699988,-0.101 7.015711,-0.142262 10.262695,-1.614258 6.576976,-2.981988 15.5153729,-0.641929 16.9013673,7.040039 0.2149992,1.190996 0.4486222,3.982473 -0.234375,4.980469 -0.7409972,1.0809956 -2.7619422,1.1176743 -3.9609374,1.7636719 -3.3389879,1.7969928 -6.6619649,3.6577985 -9.6269529,6.00878894 -3.466988,2.74898916 -7.25459,5.51374386 -10.788574,7.92773426 L -27.8573,8.6680142 C 58.661352,44.82287 -23.693958,161.27876 -131.86853,113.54496 l -0.4043,-0.30176 c -0.238,-0.32796 -1.27058,0.002 -1.62158,0.16993 -1.53,0.731 0.52045,2.20559 1.08545,2.78759 1.334,1.375 2.5831,2.83017 3.7251,4.36817 1.323,1.78 2.50172,3.66976 3.49072,5.65576 0.917,1.84 1.67042,3.75933 2.23242,5.73633 0.529,1.863 0.88716,3.77603 1.05616,5.70703 0.161,1.85 0.14896,3.71694 -0.041,5.56494 -0.186,1.8 -0.53815,3.58149 -1.05615,5.31445 -0.51,1.708 -1.17869,3.36764 -1.99365,4.95264 -0.81,1.576 -1.76466,3.07796 -2.84766,4.48096 -1.086,1.406 -2.30106,2.71295 -3.62402,3.89795 -1.337,1.19796 -2.78583,2.27354 -4.31983,3.20654 -1.565,0.952 -3.21813,1.75634 -4.93213,2.40234 -1.771,0.667 -3.60426,1.16328 -5.46826,1.48828 -1.954,0.341 -3.93936,0.49282 -5.92236,0.46582 z m -60.20068,-58.87353 c 0.46177,-0.009 0.92617,-0.0449 1.38867,-0.10693 3.81697,-0.511 6.89448,-3.02255 10.64648,-3.68555 0.092,-2.43 -2.35884,-3.4297 -4.08984,-4.6377 -1.701,-1.18697 -3.43903,-2.315191 -5.60303,-2.575191 -2.127,-0.255 -3.91673,0.295837 -5.84473,1.152831 -1.54397,0.687 -5.83042,1.61762 -6.08642,3.68262 -0.218,1.744 2.55915,3.33123 3.68115,4.26123 0.547,0.452 1.22837,0.88041 1.90137,1.17041 1.25475,0.5415 2.62096,0.76491 4.00635,0.73828 z m -41.20606,-5.46387 c 1.31298,0.0219 2.63674,-0.10318 3.93018,-0.34131 -0.197,-7.251976 -3.7521,-13.776988 -17.72608,-12.645992 l 0.40576,-0.04248 c -0.166,-0.324 -0.85618,-1.141437 -1.24218,-0.773437 -0.256,0.242998 0.92922,1.450277 1.05322,1.759277 0.208,0.525998 0.29668,1.125994 0.47168,1.666992 0.344,1.066998 0.76667,2.110006 1.28467,3.104004 0.927,1.775996 2.16793,3.395316 3.75293,4.633296 2.34505,1.8315 5.18127,2.59143 8.06982,2.63965 z m -34.87207,-46.406246 c 0.21984,-0.01358 0.45264,-0.204161 0.69873,-0.654785 1.377,-2.519998 2.20927,-6.38094 0.32227,-8.835938 -1.88,-2.444997 -8.06574,-4.352108 -8.40674,0.358887 -0.104,1.425998 0.60563,2.832641 1.74463,3.55664 1.32,0.839 3.0744,1.284963 3.8584,2.709961 0.38671,0.703125 0.99759,2.913719 1.78271,2.865235 z M 21.715501,50.583039 C 27.200481,29.926123 25.822554,11.456476 6.5762327e-4,5.2064796e-4 14.092602,-0.38447783 41.365421,22.036155 21.715501,50.583039 Z"
       transform="matrix(1.3333333,0,0,-1.3333333,503.78751,300.40465)" />
  </g>
  <g
     id="layer-MC3"
     inkscape:groupmode="layer"
     inkscape:label="Calque 12"
     style="display:none"
     transform="translate(-81.880192,-74.478006)">
    <path
       id="path13"
       d="M 0,0 C 25.822,11.456 27.201,29.926 21.716,50.583 41.366,22.036 14.092,-0.385 0,0 Z"
       style="display:inline;fill:none;stroke:#000000;stroke-width:1;stroke-linecap:butt;stroke-linejoin:miter;stroke-miterlimit:10;stroke-dasharray:none;stroke-opacity:1"
       transform="matrix(1.3333333,0,0,-1.3333333,503.78751,300.40465)"
       clip-path="url(#clipPath14)" />
    <path
       id="path15"
       d="m 0,0 c 1.161,-1.196 2.749,-1.88 3.757,-3.292 0.883,-1.233 1.278,-2.661 2.221,-3.905 1.966,-2.6 3.946,-4.68 7.013,-5.383 2.878,-0.66 5.588,-1.027 8.471,-1.356 2.173,-0.248 6.063,-0.746 7.608,-2.217"
       style="fill:none;stroke:#1d1d1b;stroke-width:1;stroke-linecap:butt;stroke-linejoin:miter;stroke-miterlimit:10;stroke-dasharray:none;stroke-opacity:1"
       transform="matrix(1.3333333,0,0,-1.3333333,189.19898,281.02571)"
       clip-path="url(#clipPath16)" />
    <path
       id="path17"
       d="m 0,0 c -2.062,2.424 -2.991,4.961 -2.902,8.2 0.064,2.336 0.623,5.216 0.208,7.504 -0.462,2.543 -1.42,5.1 -2.964,7.083 -1.538,1.976 -4.023,3.506 -6.483,4.276 -2.485,0.779 -4.894,1.764 -7.562,1.719 -0.029,-0.214 -0.088,-0.516 -0.039,-0.733 l 0.007,0.25 c -2.327,-25.696 -43.288,-23.703 -43.633,0.314 1.8,10.955 10.204,10.121 14.888,18.602 9.866,17.862 22.505,38.756 26.42,42.545 0.743,0.718 1.53,1.39 2.355,2.012 2.595,1.96 5.538,3.408 8.594,4.497 3.151,1.123 6.419,1.881 9.701,2.5 3.33,0.627 6.685,1.107 10.03,1.648 3.218,0.52 6.437,1.088 9.585,1.943 2.905,0.789 5.771,1.831 8.361,3.383 1.244,0.743 2.418,1.604 3.481,2.589 0.537,0.498 1.046,1.025 1.522,1.582 0.426,0.497 0.909,1.26 1.603,1.28 0.515,0.016 1.071,-0.088 1.337,-0.332 0.647,-0.591 0.349,-1.97 0.326,-2.803 -0.053,-1.971 -0.575,-3.833 -1.244,-5.559 -0.672,-1.737 -1.72,-3.331 -2.327,-5.188 -0.567,-1.731 -1.551,-4.473 0.59,-5.301 3.095,-1.199 7.614,-0.141 10.572,1.044 1.304,0.523 2.456,1.318 3.597,2.123 0.513,0.361 0.995,0.55 1.367,1.069 0.397,0.554 0.694,1.171 1.02,1.768 0.512,0.934 1.032,1.864 1.562,2.788 1.017,1.774 2.069,3.527 3.16,5.256 2.127,3.37 4.401,6.649 6.851,9.793 2.175,2.789 4.487,5.471 6.961,7.998 2.197,2.243 4.521,4.364 6.987,6.31 2.199,1.736 4.51,3.331 6.935,4.735 2.179,1.261 4.451,2.367 6.802,3.269 2.138,0.82 4.342,1.471 6.588,1.914 2.075,0.409 4.183,0.64 6.296,0.669 1.983,0.027 3.969,-0.124 5.922,-0.465 1.864,-0.324 3.697,-0.822 5.468,-1.489 1.714,-0.646 3.369,-1.45 4.933,-2.402 1.534,-0.933 2.981,-2.008 4.318,-3.205 1.324,-1.186 2.539,-2.493 3.625,-3.899 1.083,-1.403 2.038,-2.905 2.849,-4.481 0.814,-1.585 1.482,-3.245 1.992,-4.953 0.518,-1.733 0.871,-3.515 1.057,-5.314 0.19,-1.849 0.202,-3.715 0.041,-5.565 -0.17,-1.931 -0.527,-3.844 -1.056,-5.706 -0.562,-1.978 -1.316,-3.898 -2.233,-5.738 -0.989,-1.985 -2.167,-3.876 -3.49,-5.657 -1.142,-1.537 -2.391,-2.992 -3.724,-4.367 -0.566,-0.582 -2.617,-2.056 -1.087,-2.787 0.352,-0.168 1.382,-0.497 1.622,-0.17 l 0.404,0.302 c 108.175,47.734 190.53,-68.722 104.011,-104.876 l -0.508,-0.319 c 3.534,-2.414 7.322,-5.178 10.789,-7.927 2.965,-2.352 6.287,-4.213 9.626,-6.01 1.199,-0.646 3.222,-0.682 3.962,-1.763 0.683,-0.998 0.449,-3.79 0.234,-4.98 -1.386,-7.683 -10.324,-10.023 -16.901,-7.04 -3.247,1.471 -6.564,1.512 -10.264,1.613 -3.657,0.099 -7.459,0.449 -11.063,0.135 -1.938,-0.17 -4.186,-0.331 -6.077,-0.743 -2.108,-0.457 -2.735,-1.403 -3.994,-2.947 -1.354,-1.661 -3.326,-2.096 -4.09,-4.236 -0.576,-1.616 -0.73,-2.981 -1.776,-4.474 -5.078,-7.242 -13.199,-7.813 -21.511,-7.587 -3.791,0.104 -7.569,0.184 -11.32,0.468 -3.444,0.261 -7.444,0.685 -10.215,2.946 0.238,1.309 1.639,2.735 2.332,3.776 0.776,1.166 1.665,2.459 2.617,3.609 1.874,2.266 3.443,4.495 5.839,5.992 1.338,0.836 2.508,1.886 3.765,2.778 1.145,0.811 2.559,1.27 3.418,2.404 1.735,2.289 2.811,5.081 4.513,7.317 1.378,0.336 2.5,1.136 3.887,1.434 13.543,2.91 28.604,-0.308 42.637,0.189 -2.335,3.014 -6.661,5.355 -9.958,7.411 -1.683,1.049 -3.419,2.212 -5.251,3.113 -1.942,0.955 -4.155,2.128 -6.289,2.387 -1.235,0.152 -2.468,0.334 -3.692,0.559 -1.966,0.361 -3.908,0.834 -5.814,1.436 -2.673,0.842 -5.239,1.969 -7.884,2.89 -3.05,1.062 -6.195,1.713 -9.411,2 -0.039,0.003 -0.078,0.007 -0.117,0.01 -3.515,0.297 -6.941,-0.282 -10.264,-1.419 -3.564,-1.219 -6.981,-2.826 -10.53,-4.087 -5.025,-1.784 -10.231,-2.943 -15.53,-3.533 -3.691,-0.411 -7.407,-0.567 -11.119,-0.552 -2.219,0.009 -4.439,0.081 -6.656,0.203 -1.047,0.058 -2.093,0.25 -3.11,0.338 -1.002,0.086 -1.679,-0.717 -2.418,-1.26 -0.999,-0.732 -2.055,-1.385 -3.074,-2.088 -5.752,-3.967 -12.742,-5.479 -19.376,-6.911 -3.296,-0.71 -6.698,-1.15 -10.083,-1.696 -3.352,-0.542 -6.835,-0.16 -10.347,-0.214 -0.659,-0.01 -2.245,0.227 -2.616,-0.413 -0.33,-0.568 0.312,-1.587 0.386,-2.185 0.164,-1.333 -0.334,-1.572 0.977,-2.205 0.614,-0.296 1.617,-0.101 2.296,-0.218 3.151,-0.545 6.167,-0.845 9.474,-0.935 2.518,-0.069 9.7,-1.345 11.301,0.355 0.972,1.032 0.761,2.769 1.781,3.962 1.065,1.247 2.453,1.761 3.945,2.22 1.674,0.515 3.061,0.908 4.534,1.716 1.47,0.806 3.005,1.81 4.533,2.377 3.2,1.185 7.082,1.447 10.511,1.894 3.436,0.447 6.977,0.96 10.493,0.863 2.83,-0.077 7.044,0.534 9.64,-0.409 -0.377,-1.33 -0.661,-2.691 -1.177,-3.977 -1.132,-2.827 -3.398,-4.953 -5.4,-7.156 -1.221,-1.344 -2.553,-2.376 -4.024,-3.395 -2.454,-1.702 -5.309,-3.001 -8.277,-4.115 -3.832,-1.436 -5.461,-6.001 -9.317,-7.756 -3.122,-1.421 -7.176,-1.536 -10.602,-1.077 -7.068,0.945 -12.639,5.329 -19.899,5.215 -3.439,-0.055 -7.065,-1.529 -10.518,-1.881 -3.224,-0.327 -6.741,-0.093 -10.001,0.107 -6.626,0.405 -13.656,3.691 -16.188,10.144 -1.083,2.76 -0.905,8.539 1.115,10.811 2.446,2.751 8.116,4.084 11.702,3.979 1.706,-0.051 3.704,-0.375 5.349,0.059 1.671,0.439 3.198,1.607 4.772,2.37 1.321,0.64 8.189,3.177 8.284,4.238"
       style="fill:none;stroke:#1d1d1b;stroke-width:1;stroke-linecap:round;stroke-linejoin:round;stroke-miterlimit:10;stroke-dasharray:none;stroke-opacity:1"
       transform="matrix(1.3333333,0,0,-1.3333333,166.37151,262.14558)"
       clip-path="url(#clipPath18)" />
    <path
       id="path19"
       d="m 0,0 c -0.947,0.111 -2.545,-0.306 -3.759,-0.272 -1.333,0.036 -2.668,0.072 -4.002,0.108 -3.154,0.086 -6.636,0.56 -9.736,-0.012 -4.042,-0.745 -8.268,-2.234 -11.57,-4.731 -1.734,-1.312 -2.939,-3.12 -3.798,-5.093 -0.908,-2.085 -2.085,-4.325 -2.602,-6.536 -0.72,-3.077 -1.343,-6.25 -2.87,-8.921 -1.75,-3.061 -4.07,-5.757 -6.327,-8.466 -2.173,-2.61 -4.621,-5.117 -6.013,-8.331 -0.841,-1.943 -0.724,-4.002 -1.036,-6.104 -0.322,-2.164 -2.152,-3.603 -3.516,-5.131 -1.513,-1.697 -2.984,-3.373 -4.323,-5.187 -0.81,-1.095 -1.823,-2.169 -2.364,-3.459 -1.022,-2.434 0.873,-2.311 2.715,-2.995 1.533,-0.568 3.04,-1.219 4.713,-1.632 1.551,-0.382 2.973,-1.002 4.618,-1.126 1.481,-0.111 2.981,-0.109 4.469,-0.149 3.387,-0.093 5.944,0.492 8.931,1.989 2.415,1.211 5.444,2.902 6.409,5.568 1.89,5.218 -2.787,9.696 -0.605,14.946 1.101,2.648 1.059,5.323 1.137,8.207 0.085,3.11 0.466,5.019 2.064,7.699 1.546,2.592 3.541,4.73 5.618,6.836 1.515,1.535 3.381,2.665 4.864,4.197 1.01,1.044 1.694,2.271 2.895,3.15 2.775,2.03 6.214,2.905 9.623,2.811 1.07,-0.028 2.141,-0.057 3.213,-0.087 1.451,-0.04 3.319,-0.347 4.701,-0.813 2.288,-0.771 4.236,-2.07 6.764,-1.343 3.777,1.085 5.899,6.087 5.901,9.686"
       style="fill:none;stroke:#1d1d1b;stroke-width:1;stroke-linecap:butt;stroke-linejoin:miter;stroke-miterlimit:10;stroke-dasharray:none;stroke-opacity:1"
       transform="matrix(1.3333333,0,0,-1.3333333,173.87804,262.01665)"
       clip-path="url(#clipPath20)" />
    <path
       id="path21"
       d="m 0,0 c -0.166,-0.324 -0.855,-1.141 -1.242,-0.774 -0.256,0.243 0.929,1.45 1.052,1.76 0.21,0.526 0.298,1.125 0.473,1.666 0.344,1.066 0.765,2.11 1.285,3.104 0.926,1.776 2.168,3.396 3.752,4.634 3.412,2.664 7.862,3.06 12.001,2.298 C 17.124,5.436 13.569,-1.089 -0.405,0.042"
       style="fill:none;stroke:#1d1d1b;stroke-width:1;stroke-linecap:butt;stroke-linejoin:miter;stroke-miterlimit:10;stroke-dasharray:none;stroke-opacity:1"
       transform="matrix(1.3333333,0,0,-1.3333333,147.37804,177.63771)"
       clip-path="url(#clipPath22)" />
    <path
       id="path23"
       d="m 0,0 c -1.88,-2.445 -8.066,-4.352 -8.407,0.359 -0.104,1.426 0.606,2.832 1.745,3.556 1.32,0.839 3.074,1.285 3.858,2.71 0.495,0.9 1.357,4.271 2.482,2.211 C 1.055,6.316 1.887,2.455 0,0 Z"
       style="fill:none;stroke:#1d1d1b;stroke-width:1;stroke-linecap:butt;stroke-linejoin:miter;stroke-miterlimit:10;stroke-dasharray:none;stroke-opacity:1"
       transform="matrix(1.3333333,0,0,-1.3333333,120.09738,234.79398)"
       clip-path="url(#clipPath24)" />
    <path
       id="path25"
       d="M 0,0 C 1.996,17.252 12.421,18.969 21.988,16.707"
       style="fill:none;stroke:#1d1d1b;stroke-width:1;stroke-linecap:butt;stroke-linejoin:miter;stroke-miterlimit:10;stroke-dasharray:none;stroke-opacity:1"
       transform="matrix(1.3333333,0,0,-1.3333333,141.27324,178.66438)"
       clip-path="url(#clipPath26)" />
    <path
       id="path27"
       d="m 0,0 c 5.104,10.845 21.33,2.613 28.848,-0.351 0.861,-0.338 2.845,-0.772 3.112,-1.641 0.456,-1.479 -2.05,-1.663 -2.968,-2.273 -2.491,-1.655 -3.868,-4.786 -6.193,-6.739 -2.346,-1.972 -4.695,-3.206 -7.808,-3.285 -1.298,-0.033 -2.741,-0.042 -4.03,0.11 -1.475,0.173 -2.145,1.102 -3.426,1.7 -2.877,1.344 -6.241,1.77 -9.155,3.52"
       style="fill:none;stroke:#1d1d1b;stroke-width:1;stroke-linecap:butt;stroke-linejoin:miter;stroke-miterlimit:10;stroke-dasharray:none;stroke-opacity:1"
       transform="matrix(1.3333333,0,0,-1.3333333,204.83564,153.98798)"
       clip-path="url(#clipPath28)" />
    <path
       id="path29"
       d="m 0,0 c -1.544,0.687 -5.831,1.618 -6.087,3.683 -0.218,1.743 2.559,3.331 3.682,4.261 0.546,0.452 1.227,0.88 1.902,1.171 1.672,0.722 3.545,0.878 5.394,0.63 C 8.708,9.235 11.786,6.723 15.539,6.059 15.63,3.63 13.178,2.63 11.448,1.423 9.747,0.234 8.008,-0.893 5.844,-1.153 3.717,-1.408 1.929,-0.857 0,0 Z"
       style="fill:none;stroke:#1d1d1b;stroke-width:1;stroke-linecap:butt;stroke-linejoin:miter;stroke-miterlimit:10;stroke-dasharray:none;stroke-opacity:1"
       transform="matrix(1.3333333,0,0,-1.3333333,215.50364,166.11691)"
       clip-path="url(#clipPath30)" />
  </g>
</svg>
