<?xml version="1.0" encoding="UTF-8" standalone="no"?>
<!-- Created with Inkscape (http://www.inkscape.org/) -->

<svg
   version="1.1"
   id="svg1"
   width="44.332821mm"
   height="44.332817mm"
   viewBox="0 0 167.5571 167.55711"
   sodipodi:docname="favicon.svg2.svg"
   inkscape:version="1.3.2 (091e20ef0f, 2023-11-25)"
   xmlns:inkscape="http://www.inkscape.org/namespaces/inkscape"
   xmlns:sodipodi="http://sodipodi.sourceforge.net/DTD/sodipodi-0.dtd"
   xmlns="http://www.w3.org/2000/svg"
   xmlns:svg="http://www.w3.org/2000/svg">
  <sodipodi:namedview
     id="namedview2"
     pagecolor="#ffffff"
     bordercolor="#000000"
     borderopacity="0.25"
     inkscape:showpageshadow="2"
     inkscape:pageopacity="0.0"
     inkscape:pagecheckerboard="0"
     inkscape:deskcolor="#d1d1d1"
     inkscape:document-units="mm"
     showguides="false"
     inkscape:zoom="3.1989094"
     inkscape:cx="83.778553"
     inkscape:cy="83.778553"
     inkscape:window-width="1280"
     inkscape:window-height="775"
     inkscape:window-x="0"
     inkscape:window-y="0"
     inkscape:window-maximized="1"
     inkscape:current-layer="svg1">
    <sodipodi:guide
       position="0,167.5571"
       orientation="0,167.55712"
       id="guide3"
       inkscape:locked="false" />
    <sodipodi:guide
       position="167.55712,167.5571"
       orientation="167.5571,0"
       id="guide4"
       inkscape:locked="false" />
    <sodipodi:guide
       position="167.55712,0"
       orientation="0,-167.55712"
       id="guide5"
       inkscape:locked="false" />
    <sodipodi:guide
       position="0,0"
       orientation="-167.5571,0"
       id="guide6"
       inkscape:locked="false" />
  </sodipodi:namedview>
  <defs
     id="defs1">
    <clipPath
       clipPathUnits="userSpaceOnUse"
       id="clipPath3">
      <path
         d="M 0,364 H 459.334 V 0 H 0 Z"
         transform="translate(-373.08691,-136.6592)"
         id="path3" />
    </clipPath>
    <clipPath
       clipPathUnits="userSpaceOnUse"
       id="clipPath22">
      <path
         d="M 0,364 H 459.334 V 0 H 0 Z"
         transform="translate(-105.7798,-228.73441)"
         id="path22" />
    </clipPath>
    <clipPath
       clipPathUnits="userSpaceOnUse"
       id="clipPath52">
      <rect
         style="display:inline;fill:#808080;stroke:none;stroke-width:2.20882"
         id="rect52"
         width="167.55711"
         height="167.5571"
         x="74.913277"
         y="95.285439" />
    </clipPath>
  </defs>
  <g
     id="layer-MC3"
     style="display:inline"
     transform="translate(-74.800363,-99.059618)">
    <g
       id="g43"
       style="display:inline"
       transform="translate(-0.11291061,3.7741788)"
       clip-path="url(#clipPath52)">
      <path
         id="path2"
         clip-path="url(#clipPath3)"
         style="display:inline;fill:#000000;fill-opacity:1;fill-rule:nonzero;stroke:none"
         d="m -199.93009,134.75396 c -1.7e-4,-3.7e-4 2.2e-4,-0.001 0,-0.001 -1.09076,-1.72866 -2.14288,-3.48223 -3.15967,-5.25586 -0.53,-0.924 -1.04952,-1.8536 -1.56152,-2.7876 -2.1e-4,-3.7e-4 2e-4,-0.001 0,-0.001 -0.32576,-0.59666 -0.62424,-1.21295 -1.021,-1.76661 -0.186,-0.2595 -0.39876,-0.43601 -0.62988,-0.59326 -5.5e-4,-3.7e-4 -9.1e-4,-0.001 -0.001,-0.001 -0.23068,-0.1568 -0.47945,-0.29453 -0.73536,-0.47461 -1.141,-0.805 -2.29365,-1.59956 -3.59765,-2.12256 -2.958,-1.185 -7.47678,-2.24343 -10.57178,-1.04443 -1.60526,0.6208 -1.45241,2.31851 -1.03711,3.85839 1.3e-4,4.8e-4 -1.3e-4,9.9e-4 0,0.001 0.1384,0.51294 0.30658,1.00747 0.44824,1.43994 1.4e-4,4.4e-4 -1.4e-4,0.001 0,0.001 0.30336,0.92806 0.71652,1.79081 1.13819,2.63818 2e-4,4e-4 -2e-4,0.001 0,0.001 0.42167,0.84735 0.85205,1.67931 1.18798,2.54737 1.7e-4,4.2e-4 -1.6e-4,10e-4 0,10e-4 0.669,1.726 1.19066,3.58809 1.24366,5.55908 0.0172,0.62435 0.18893,1.55485 0.001,2.23096 -1.2e-4,4.4e-4 1.2e-4,0.001 0,0.001 -0.0627,0.2254 -0.16491,0.42207 -0.32666,0.56982 -0.266,0.244 -0.8224,0.34852 -1.3374,0.33252 -0.34662,-0.01 -0.64034,-0.20646 -0.90088,-0.46143 -0.26111,-0.25552 -0.48843,-0.57007 -0.70166,-0.81884 -0.476,-0.557 -0.98497,-1.08404 -1.52197,-1.58203 -0.53198,-0.4925 -1.0922,-0.95319 -1.67432,-1.38428 -0.58157,-0.43098 -1.18597,-0.83281 -1.80762,-1.2041 -2.58999,-1.552 -5.45486,-2.59479 -8.35986,-3.38379 -3.148,-0.855 -6.36794,-1.42239 -9.58594,-1.94239 -3.34499,-0.541 -6.69979,-1.02095 -10.02978,-1.64795 -3.282,-0.61899 -6.5492,-1.37748 -9.7002,-2.50048 -3.056,-1.089 -5.99924,-2.53708 -8.59424,-4.49707 -0.825,-0.622 -1.61247,-1.29324 -2.35547,-2.01123 -3.91499,-3.789 -16.55393,-24.682945 -26.41992,-42.544927 -2e-4,-3.63e-4 2e-4,-0.0011 0,-0.0015 -0.58533,-1.05964 -1.22881,-1.973244 -1.91015,-2.783203 -2.5e-4,-2.9e-4 2.4e-4,-0.0012 0,-0.0015 -0.68138,-0.8099 -1.40159,-1.515123 -2.13868,-2.157715 -2.21232,-1.928689 -4.58465,-3.290034 -6.57275,-5.195801 -0.66235,-0.634922 -1.28297,-1.32983 -1.83984,-2.126953 -2.2e-4,-3.14e-4 2.2e-4,-0.0012 0,-0.0015 -0.55681,-0.797189 -1.05088,-1.69604 -1.46192,-2.737793 -0.30117,-0.762921 -0.50181,-1.699956 -0.70605,-2.632324 -0.0748,-0.341399 -0.19897,-0.59679 -0.25928,-0.963867 0.0108,-0.750531 0.0617,-1.47967 0.14941,-2.187012 6e-5,-4.72e-4 -5e-5,-9.93e-4 0,-0.0015 0.0877,-0.706824 0.21242,-1.391826 0.37207,-2.055176 1.1e-4,-4.57e-4 -1.1e-4,-10e-4 0,-0.0015 0.1597,-0.663315 0.35471,-1.305309 0.58155,-1.924805 1.6e-4,-4.32e-4 -1.6e-4,-10e-4 0,-0.0015 0.454,-1.239854 1.03752,-2.390375 1.73144,-3.452637 0.34716,-0.531425 0.72214,-1.039908 1.12207,-1.526367 5.59577,-6.806382 16.12015,-9.194977 24.93897,-6.689942 3.18335,0.904249 6.08271,2.522443 8.50928,4.724122 0.45453,0.412412 0.95171,0.771603 1.3667,1.230468 0.43866,0.484986 0.85389,0.995005 1.24365,1.532227 0.3893,0.536592 0.75416,1.099913 1.08984,1.688965 2.1e-4,3.74e-4 -2.1e-4,0.0011 0,0.0015 0.16723,0.293507 0.30548,0.613328 0.4585,0.919922 0.15429,0.309217 0.32366,0.604674 0.46289,0.927246 0.27714,0.641902 0.52295,1.310322 0.73681,2.005371 1.4e-4,4.42e-4 -1.3e-4,0.001 0,0.0015 0.0427,0.138752 0.0684,0.29125 0.1084,0.432129 0.36144,1.271498 0.63079,2.616204 0.76172,4.062011 l -0.007,-0.247558 c -0.0485,0.216905 0.0106,0.517384 0.0396,0.730957 1.33398,0.0225 2.60347,-0.2126 3.84961,-0.550781 1.24613,-0.338182 2.46891,-0.779447 3.71191,-1.168946 0.615,-0.192498 1.23248,-0.432261 1.83545,-0.714843 1.20595,-0.565166 2.35707,-1.301305 3.33252,-2.167969 0.48737,-0.433139 0.93114,-0.897877 1.31543,-1.391602 2.1e-4,-2.74e-4 -2.1e-4,-0.0012 0,-0.0015 1.54356,-1.982864 2.50292,-4.53993 2.96484,-7.082519 0.10375,-0.572 0.14593,-1.180833 0.15088,-1.809082 0.0149,-1.884749 -0.31088,-3.943315 -0.35888,-5.695313 -0.0445,-1.620232 0.16519,-3.063611 0.64453,-4.40625 0.4789,-1.341424 1.22679,-2.581031 2.25732,-3.792481 2.7e-4,-3.15e-4 -2.7e-4,-0.0011 0,-0.0015 l 1.14227,-9.435761 61.82882,6.574467 c 0.87784,51.192967 27.70236,189.888622 -9.84011,108.923002 z"
         transform="matrix(1.3333333,0,0,-1.3333333,503.7875,300.40465)" />
    </g>
    <path
       id="path21"
       clip-path="url(#clipPath22)"
       style="display:inline;fill:#ffffff;stroke:#1d1d1b;stroke-width:1;stroke-linecap:butt;stroke-linejoin:miter;stroke-miterlimit:10;stroke-dasharray:none;stroke-opacity:1"
       d="m 54.597715,18.492719 c -1.385202,0.02691 -2.752349,-0.195317 -4.006348,-0.736816 -0.674999,-0.291 -1.356832,-0.719875 -1.902832,-1.171875 -1.122999,-0.929999 -3.899152,-2.516767 -3.681152,-4.259766 0.256,-2.064998 4.542427,-2.9970825 6.086426,-3.6840818 1.928998,-0.8569991 3.717728,-1.4078318 5.844726,-1.1528321 2.163998,0.2599998 3.902029,1.3876614 5.603028,2.5766599 1.729998,1.206999 4.182308,2.207233 4.091308,4.636231 -3.752996,0.663999 -6.830953,3.175547 -10.647949,3.685547 -0.46225,0.062 -0.925473,0.09797 -1.387207,0.106933 z M 13.390195,13.028852 C 10.501572,12.980625 7.6661179,12.222167 5.3203703,10.390669 3.7363719,9.1526698 2.4934396,7.531901 1.5674405,5.7559028 1.0474411,4.7619038 0.62677219,3.7178978 0.28277254,2.6518988 0.10777271,2.1108994 0.01962779,1.5123709 -0.190372,0.98637146 -0.31337188,0.67637177 -1.4981296,-0.531371 -1.2421298,-0.77437076 -0.85513022,-1.1413704 -0.16594214,-0.32346808 5.7689782e-5,5.3160029e-4 L -0.40570404,0.04154723 C 13.568282,-1.0894516 17.123371,5.4355508 17.320371,12.687544 c -1.293437,0.238124 -2.617166,0.36323 -3.930176,0.341308 z m -34.872071,-46.404786 c -0.785125,0.04848 -1.395997,-2.163575 -1.782715,-2.866699 -0.783999,-1.424999 -2.5384,-1.870962 -3.858399,-2.709961 -1.138999,-0.723999 -1.848629,-2.129177 -1.744629,-3.555176 0.341,-4.710995 6.526741,-2.803884 8.406739,-0.358887 1.886998,2.454998 1.054733,6.31594 -0.322266,8.835938 -0.246093,0.450625 -0.478895,0.641209 -0.69873,0.654785 z"
       transform="matrix(1.3333333,0,0,-1.3333333,147.26513,181.41189)" />
  </g>
</svg>
